#!OML:ASF H:\Terrain\Patient Classification 1\Terrain2\Thursday\justin.ASF
:FULLY-SPECIFIED
:DEGREES
2047
root 19.0534 17.5723 -21.4382 1000.6 83.2425 -441.107
lowerback 0.145416 1.80255 5.17578
upperback 1.02362 2.42486 3.18081
thorax 1.04588 1.27084 0.391642
lowerneck -15.095 -2.90932 -8.95386
upperneck 30.269 -1.75035 2.92823
head 12.72 -1.14214 2.46642
rclavicle 2.25372e-014 1.23246e-014
rhumerus -25.3016 -8.23262 -80.7894
rradius 34.6279
rwrist -14.3788
rhand -21.6302 13.4904
rfingers 7.12502
rthumb 4.76583 -16.436
lclavicle 2.25372e-014 1.23246e-014
lhumerus -37.6524 4.46728 86.2175
lradius 31.1349
lwrist -1.4384
lhand -14.1321 21.3741
lfingers 7.12502
lthumb 12.0017 51.01
rfemur -7.31617 -1.59263 28.8056
rtibia 26.5471
rfoot -17.6019 0.646382
rtoes 4.99115
lfemur -13.6385 -1.96434 -14.6209
ltibia 30.2795
lfoot -13.3684 -6.14314
ltoes 20.3431
2048
root 19.0939 17.5673 -21.4445 1000.54 83.146 -441.12
lowerback 0.215388 1.80411 5.219
upperback 1.01528 2.43223 3.14748
thorax 1.00155 1.27387 0.330772
lowerneck -15.1715 -2.96667 -8.67903
upperneck 30.2733 -1.85283 2.74491
head 12.7389 -1.18125 2.33183
rclavicle 2.17918e-014 2.34566e-014
rhumerus -25.5061 -8.71124 -80.8889
rradius 34.3118
rwrist -14.1384
rhand -21.649 13.8681
rfingers 7.12502
rthumb 4.74769 -16.0587
lclavicle 2.17918e-014 2.34566e-014
lhumerus -37.6207 4.15128 86.1735
lradius 31.0016
lwrist -0.934717
lhand -14.4588 21.5976
lfingers 7.12502
lthumb 11.6867 51.2516
rfemur -7.18791 -1.33982 28.9357
rtibia 26.6745
rfoot -17.757 0.183059
rtoes 4.06851
lfemur -13.3685 -1.77174 -14.4812
ltibia 30.1481
lfoot -13.2942 -6.56506
ltoes 20.5035
2049
root 19.1346 17.5664 -21.453 1000.46 83.1769 -441.058
lowerback 0.326914 1.83175 5.1569
upperback 1.02928 2.47646 3.12244
thorax 0.953247 1.29453 0.336064
lowerneck -15.0458 -3.04057 -8.57249
upperneck 30.1918 -1.96598 2.62132
head 12.6842 -1.23447 2.24697
rclavicle -7.60351e-015 -7.55382e-015
rhumerus -25.7396 -9.05685 -80.8221
rradius 33.9376
rwrist -13.9804
rhand -21.6549 14.1864
rfingers 7.12502
rthumb 4.74203 -15.7405
lclavicle -7.60351e-015 -7.55382e-015
lhumerus -37.6805 4.05154 86.0678
lradius 30.9828
lwrist -1.12217
lhand -14.2084 21.6609
lfingers 7.12502
lthumb 11.9281 51.301
rfemur -6.93412 -1.43351 28.7776
rtibia 26.8554
rfoot -18.0488 0.763516
rtoes 7.20972
lfemur -13.0046 -1.52685 -14.5259
ltibia 30.0068
lfoot -13.4169 -6.90176
ltoes 20.0194
2050
root 19.1713 17.5485 -21.4752 1002.38 83.4372 -439.128
lowerback 0.347183 1.82565 4.90399
upperback 1.01936 2.46832 3.0808
thorax 0.922346 1.28679 0.432238
lowerneck -14.9403 -3.0325 -8.69504
upperneck 30.0984 -1.92695 2.60454
head 12.6238 -1.23305 2.26592
rclavicle 1.2424e-015 1.55052e-014
rhumerus -25.9613 -8.80534 -80.7302
rradius 33.679
rwrist -14.0263
rhand -21.794 14.0259
rfingers 7.12502
rthumb 4.60772 -15.904
lclavicle 1.2424e-015 1.55052e-014
lhumerus -37.6005 3.98475 86.075
lradius 30.5189
lwrist -1.18471
lhand -14.0682 21.2589
lfingers 7.12502
lthumb 12.0634 50.8911
rfemur -6.96191 -2.06185 28.3329
rtibia 27.0818
rfoot -18.2716 1.01323
rtoes 4.89636
lfemur -12.8073 -0.935421 -14.9381
ltibia 29.9099
lfoot -13.5181 -7.33361
ltoes 20.3249
2051
root 19.2041 17.5516 -21.5036 1004.14 83.6077 -437.478
lowerback 0.395118 1.77914 4.90505
upperback 0.93392 2.41152 2.9859
thorax 0.810094 1.25457 0.329874
lowerneck -14.9637 -2.99704 -8.717
upperneck 30.0649 -1.86234 2.57417
head 12.6109 -1.21193 2.26678
rclavicle 1.75676e-014 3.26007e-014
rhumerus -26.2162 -8.52493 -80.7703
rradius 33.4826
rwrist -14.0865
rhand -21.6058 13.9511
rfingers 7.12502
rthumb 4.78943 -15.9748
lclavicle 1.75676e-014 3.26007e-014
lhumerus -37.0026 3.02552 86.4145
lradius 28.9525
lwrist -0.0446296
lhand -14.7866 20.5469
lfingers 7.12502
lthumb 11.3706 50.2186
rfemur -7.05606 -1.92731 27.9323
rtibia 27.4012
rfoot -18.485 1.34054
rtoes 7.27207
lfemur -12.7027 -0.470854 -15.2688
ltibia 29.7488
lfoot -13.619 -7.70201
ltoes 20.6374
